HIERARCHY
ROOT Hips
{
	OFFSET 0.00000 0.00000 0.00000
	CHANNELS 6 Xposition Yposition Zposition Yrotation Zrotation Xrotation 
	JOINT Lumbar
	{
		OFFSET 0 0 0
		CHANNELS 3 Zrotation Xrotation Yrotation
		JOINT Neck
		{
			OFFSET 0.00 0.2701 0.00
			CHANNELS 3 Zrotation Xrotation Yrotation
			End Site
			{
				OFFSET 0.00 0.1379 0.00
			}
		}
		JOINT RightShoulder
		{
			OFFSET 0.0119 0.2289 0.1181
			CHANNELS 3 Zrotation Xrotation Yrotation
			JOINT RightElbow
			{
				OFFSET 0.00 -0.1475 0.00
				CHANNELS 2 Zrotation Yrotation
				JOINT RightWrist
				{
					OFFSET 0.00 -0.1605 0.00
					CHANNELS 2 Zrotation Xrotation
					End Site
					{
						OFFSET 0.0040 -0.1068 0.0006
					}
				}
			}
		}
		JOINT LeftShoulder
		{
			OFFSET 0.0119 0.2289 -0.1181
			CHANNELS 3 Zrotation Xrotation Yrotation
			JOINT LeftElbow
			{
				OFFSET 0.00 -0.1475 0.00
				CHANNELS 2 Zrotation Yrotation
				JOINT LeftWrist
				{
					OFFSET 0.00 -0.1605 0.00
					CHANNELS 2 Zrotation Xrotation
					End Site
					{
						OFFSET 0.0040 -0.1068 -0.0006
					}
				}
			}
		}
	}
	JOINT RightHip
	{
		OFFSET 0.0316 -0.0424 0.0458
		CHANNELS 3 Zrotation Xrotation Yrotation
		JOINT RightKnee
		{
			OFFSET 0.00 -0.2438 0.00
			CHANNELS 1 Zrotation
			JOINT RightAnkle
			{
				OFFSET 0.00 -0.2449 0.00
				CHANNELS 3 Zrotation Xrotation Yrotation
				End Site
				{
					OFFSET 0.1237 -0.0542 0.0051
				}
			}
		}
	}
	JOINT LeftHip
	{
		OFFSET 0.0316 -0.0424 -0.0458
		CHANNELS 3 Zrotation Xrotation Yrotation
		JOINT LeftKnee
		{
			OFFSET 0.00 -0.2438 0.00
			CHANNELS 1 Zrotation
			JOINT LeftAnkle
			{
				OFFSET 0.00 -0.2449 0.00
				CHANNELS 3 Zrotation Xrotation Yrotation
				End Site
				{
					OFFSET 0.1237 -0.0542 -0.0051
				}
			}
		}
	}
}
MOTION
Frames: 19
Frame Time: 0.02
-0.20135 -0.18536 0.0378 27.06529 -29.90637 -5.3034 15.1418 5.69152 -5.47103 10.94434 -34.44451 -2.11994 166.38694 -144.12812 -87.14688 106.24127 68.70553 -75.22933 -21.88672 15.24464 -5.98997 -1.63272 36.2471 -85.79535 -21.49447 3.86535 106.16321 -8.18844 -9.91952 -70.71334 -6.12842 -2.10422 -3.22227 108.02316 5.43668 2.76892 -73.29022 -5.97898 2.77326 3.55312
-0.20145 -0.18532 0.0379 27.27017 -29.82874 -5.16865 15.0098 5.63387 -5.481 10.99221 -34.55302 -2.11994 166.38694 -144.01843 -87.14687 106.17594 68.63333 -75.22928 -21.88628 15.40519 -6.04994 -1.95483 36.06773 -85.61144 -21.44375 3.83036 105.94563 -8.38898 -9.90999 -69.52586 -6.88593 -1.94801 -3.18321 107.90308 5.17875 2.77326 -73.39241 -5.91892 2.80834 3.56635
-0.20159 -0.18526 0.03801 27.5492 -29.7343 -5.00994 14.8457 5.57563 -5.53848 11.01954 -34.56085 -2.11994 166.38693 -143.91268 -87.14686 106.09011 68.54832 -75.2292 -21.88554 15.58546 -6.13955 -2.21564 35.85819 -85.46364 -21.40652 3.80514 105.66852 -8.64478 -9.89599 -68.01516 -7.84671 -1.75685 -3.1382 107.75233 4.84041 2.76172 -73.40796 -5.89831 2.84184 3.58052
-0.20171 -0.18521 0.03811 27.78737 -29.65057 -4.8664 14.70079 5.52004 -5.57283 11.05276 -34.61358 -2.11994 166.38693 -143.80799 -87.14686 106.01963 68.47201 -75.22914 -21.88497 15.75419 -6.21535 -2.48808 35.66753 -85.31063 -21.36093 3.77851 105.42874 -8.86758 -9.88074 -66.70115 -8.68526 -1.58791 -3.09749 107.62001 4.549 2.76013 -73.46205 -5.86056 2.87488 3.59376
-0.20183 -0.18514 0.03823 28.05652 -29.55358 -4.70381 14.53551 5.45312 -5.61423 11.09908 -34.66533 -2.11994 166.38692 -143.68907 -87.14685 105.92535 68.3831 -75.22906 -21.88429 15.93713 -6.30097 -2.80546 35.4549 -85.12899 -21.32081 3.74364 105.14565 -9.1248 -9.8789 -65.17396 -9.6516 -1.39124 -3.04962 107.46752 4.21551 2.75136 -73.51919 -5.82029 2.91233 3.60888
-0.20195 -0.1851 0.03831 28.27827 -29.48029 -4.57574 14.40518 5.41028 -5.65212 11.1144 -34.69686 -2.11994 166.38691 -143.60176 -87.14685 105.87492 68.31746 -75.22901 -21.88375 16.09529 -6.3762 -3.0035 35.28071 -85.02237 -21.27033 3.73044 104.93802 -9.32306 -9.84904 -64.01288 -10.40033 -1.2442 -3.01536 107.35013 3.9499 2.75154 -73.54735 -5.79576 2.94046 3.62047
-0.202 -0.18513 0.03831 28.35341 -29.47704 -4.54686 14.38176 5.43234 -5.66759 11.04139 -34.69852 -2.11994 166.38691 -143.59853 -87.14684 105.95353 68.32059 -75.229 -21.88366 16.16131 -6.33288 -3.15417 35.22263 -84.93006 -21.23679 3.72266 104.96078 -9.34446 -9.73272 -63.97044 -10.48641 -1.24535 -3.02088 107.33814 3.8914 2.78733 -73.54373 -5.78817 2.943 3.62111
-0.20204 -0.18519 0.03827 28.3777 -29.49818 -4.55405 14.39423 5.47908 -5.67809 10.9394 -34.68374 -2.11994 166.38691 -143.62771 -87.14684 106.07637 68.34743 -75.229 -21.88371 16.20365 -6.28745 -3.1559 35.20379 -84.93327 -21.18682 3.74238 105.06032 -9.30445 -9.59011 -64.30325 -10.34828 -1.29736 -3.04025 107.36239 3.90381 2.83092 -73.50897 -5.79827 2.93626 3.61834
-0.20209 -0.18523 0.03825 28.42367 -29.5079 -4.54612 14.38888 5.51586 -5.69141 10.85589 -34.67626 -2.11994 166.38691 -143.64378 -87.14684 106.17665 68.36256 -75.229 -21.88371 16.2696 -6.29982 -3.04174 35.16543 -85.01882 -21.11044 3.78539 105.11981 -9.29286 -9.46629 -64.44603 -10.32036 -1.32451 -3.05287 107.3698 3.88336 2.86574 -73.47165 -5.8105 2.9341 3.61783
-0.20213 -0.1853 0.03823 28.47851 -29.51849 -4.53188 14.38913 5.5475 -5.7037 10.74937 -34.66581 -2.11994 166.38691 -143.65302 -87.14684 106.28602 68.38106 -75.229 -21.88366 16.28565 -6.08931 -3.64929 35.13343 -84.60887 -21.16752 3.68768 105.19865 -9.28148 -9.31383 -64.65892 -10.26468 -1.3577 -3.06715 107.37829 3.86245 2.92187 -73.50331 -5.77959 2.93069 3.61445
-0.20218 -0.18532 0.03821 28.50155 -29.53323 -4.53979 14.38621 5.59544 -5.71676 10.68398 -34.65911 -2.11994 166.38691 -143.68427 -87.14685 106.38797 68.39849 -75.22901 -21.88375 16.39523 -6.32231 -2.78235 35.09754 -85.21104 -20.955 3.87706 105.25666 -9.25385 -9.21433 -64.82014 -10.21066 -1.39094 -3.08138 107.39278 3.86082 2.93599 -73.38314 -5.84425 2.9273 3.61611
-0.20225 -0.18524 0.03817 28.45125 -29.55404 -4.59899 14.37015 5.68472 -5.72907 10.7408 -34.66623 -2.11994 166.38692 -143.76688 -87.14685 106.4522 68.40599 -75.22907 -21.88429 16.80814 -7.9532 2.67071 35.04446 -88.95117 -19.89328 4.96064 105.23473 -9.20034 -9.27196 -64.74001 -10.21705 -1.41129 -3.09182 107.42215 3.89139 2.8294 -72.86934 -6.14964 2.92975 3.63331
-0.20233 -0.18513 0.03813 28.37 -29.57827 -4.67946 14.34919 5.78904 -5.74271 10.83974 -34.67829 -2.11994 166.38692 -143.87054 -87.14686 106.50861 68.41185 -75.22914 -21.88497 17.30917 -10.00068 9.50712 34.98579 -93.64309 -18.5794 6.31349 105.19021 -9.13168 -9.38305 -64.59787 -10.23158 -1.4302 -3.10179 107.45535 3.93987 2.68087 -72.2019 -6.55305 2.93199 3.65554
-0.2024 -0.18503 0.03809 28.30114 -29.60052 -4.75108 14.32754 5.88503 -5.75837 10.91864 -34.68902 -2.11994 166.38693 -143.96582 -87.14686 106.57306 68.41934 -75.2292 -21.88554 17.74321 -11.7407 15.33836 34.92763 -97.65195 -17.45439 7.47002 105.15868 -9.06692 -9.46669 -64.4903 -10.24076 -1.45034 -3.11218 107.48196 3.98311 2.55346 -71.59212 -6.92484 2.93191 3.67492
-0.20247 -0.18491 0.03804 28.23741 -29.62496 -4.82081 14.31872 5.98851 -5.76339 11.00071 -34.69536 -2.11994 166.38694 -144.0582 -87.14687 106.62062 68.42404 -75.22928 -21.88628 18.28762 -13.96872 22.73183 34.87893 -102.70031 -16.02212 8.93323 105.11816 -9.01216 -9.5625 -64.36865 -10.24942 -1.46987 -3.12223 107.52935 4.01704 2.41758 -71.02838 -7.24626 2.94133 3.69657
-0.20256 -0.18484 0.03802 28.15659 -29.64587 -4.8987 14.28247 6.07924 -5.7902 11.08604 -34.71211 -2.11994 166.38694 -144.15994 -87.14688 106.70028 68.43372 -75.22933 -21.88672 18.62657 -15.29269 27.2388 34.80924 -105.83526 -15.16151 9.82942 105.09021 -8.93438 -9.64631 -64.25674 -10.26374 -1.48956 -3.13263 107.53507 4.07308 2.28933 -70.33789 -7.69118 2.93152 3.71475
-0.20269 -0.18498 0.03808 28.03372 -29.65151 -4.99695 14.16353 6.13421 -5.88334 11.1749 -34.75759 -2.11994 166.38694 -144.29301 -87.14687 106.87581 68.45848 -75.22928 -21.88627 18.34962 -13.90441 23.08968 34.67788 -103.22592 -16.01517 9.02463 105.1004 -8.79177 -9.68143 -64.1857 -10.29457 -1.51081 -3.14467 107.41456 4.191 2.19208 -69.29037 -8.49156 2.86439 3.72192
-0.20284 -0.18519 0.03818 27.89544 -29.65413 -5.10197 14.01846 6.17515 -5.99719 11.26487 -34.81313 -2.11994 166.38693 -144.43269 -87.14686 107.08263 68.488 -75.2292 -21.88552 17.86829 -11.61446 16.05616 34.52623 -98.70365 -17.43854 7.65365 105.12397 -8.62777 -9.70323 -64.12505 -10.33139 -1.53189 -3.1569 107.25363 4.32928 2.10401 -68.12904 -9.40574 2.77871 3.72548
-0.20297 -0.18535 0.03827 27.76602 -29.66124 -5.20169 13.89058 6.22031 -6.09728 11.35128 -34.86352 -2.11994 166.38692 -144.56211 -87.14686 107.27147 68.51459 -75.22914 -21.88494 17.498 -9.81047 10.56462 34.38716 -95.20167 -18.55333 6.58598 105.14253 -8.47708 -9.7329 -64.05846 -10.36471 -1.55227 -3.16861 107.1178 4.45443 2.01184 -67.0493 -10.24231 2.7044 3.73086
